<svg width="600" height="311" viewBox="0 0 600 311" fill="none" xmlns="http://www.w3.org/2000/svg">
<path d="M414.84 100.19H344.95V268.64H414.84V100.19Z" fill="black"/>
<path d="M166.35 58.08H234.74V125.88C234.74 134.84 240.11 140.52 248.77 140.52C257.43 140.52 262.81 134.85 262.81 125.88V100.2H331.2V170.38H231.75C223.09 170.38 217.11 176.06 217.11 184.12C217.11 192.18 223.09 197.86 231.75 197.86H331.2V268.64H262.81V242.35C262.81 233.39 257.44 227.71 248.77 227.71C240.1 227.71 234.74 233.38 234.74 242.35V268.64H166.35V58.08Z" fill="black"/>
<path d="M0 254.45H93.18C101.84 254.45 107.82 248.78 107.82 240.71C107.82 232.64 101.84 226.68 93.18 226.68L0 226.08V100.2H152.61V156.35H59.44C50.78 156.35 44.8 162.02 44.8 170.09C44.8 178.16 50.78 184.12 59.44 184.12H152.61V310.75H0V254.46V254.45Z" fill="black"/>
<path d="M510.41 211.29C525.64 211.29 537.29 199.64 537.29 184.41C537.29 169.18 525.64 157.53 510.41 157.53C495.18 157.53 483.53 169.18 483.53 184.41C483.53 199.64 495.18 211.29 510.41 211.29ZM513.4 100.19C564.77 100.19 600.01 134.53 600.01 184.41C600.01 234.29 564.77 268.63 513.4 268.63H495.77V310.74H428.57V100.19H513.39H513.4Z" fill="black"/>
<path d="M465.22 43.5C465.22 67.53 445.75 87 421.72 87C397.69 87 378.22 67.52 378.22 43.5C378.22 19.48 397.7 0 421.72 0C445.74 0 465.22 19.47 465.22 43.5Z" fill="#FFC900"/>
</svg>
