<svg version="1.1" xmlns="http://www.w3.org/2000/svg" viewBox="0 0 806.0950280586721 311.146306688398" width="806.0950280586721" height="311.146306688398">
  <!-- svg-source:excalidraw -->
  
  <defs>
    <style class="style-fonts">
      @font-face {
        font-family: "Virgil";
        src: url("https://excalidraw.com/Virgil.woff2");
      }
      @font-face {
        font-family: "Cascadia";
        src: url("https://excalidraw.com/Cascadia.woff2");
      }
      @font-face {
        font-family: "Assistant";
        src: url("https://excalidraw.com/Assistant-Regular.woff2");
      }
    </style>
    
  </defs>
  <rect x="0" y="0" width="806.0950280586721" height="311.146306688398" fill="#ffffff"></rect><g stroke-linecap="round" transform="translate(10 10) rotate(0 393.04751402933607 145.573153344199)"><path d="M7.86 8.16 C7.86 8.16, 7.86 8.16, 7.86 8.16 M7.86 8.16 C7.86 8.16, 7.86 8.16, 7.86 8.16 M1.43 27.75 C9.22 17.74, 17.44 8.5, 24.4 1.33 M1.43 27.75 C7.79 20.99, 14.01 13.86, 24.4 1.33 M0.26 41.3 C13.48 24.86, 28.07 8.96, 36.34 -0.21 M0.26 41.3 C12.36 28.04, 23.14 13.43, 36.34 -0.21 M0.39 53.34 C14.02 41.2, 23.44 25.93, 46.97 -0.25 M0.39 53.34 C10.64 40.53, 19.97 29.1, 46.97 -0.25 M0.52 65.38 C15.21 49.76, 29.03 32.51, 57.6 -0.28 M0.52 65.38 C21.58 41.22, 43.25 15.65, 57.6 -0.28 M0 78.17 C18.4 55.04, 39.21 32.32, 67.57 0.44 M0 78.17 C21.48 53.37, 43.64 26.89, 67.57 0.44 M0.13 90.22 C21 63.88, 42.55 40.89, 78.2 0.41 M0.13 90.22 C19.68 67.87, 38.41 46.63, 78.2 0.41 M0.26 102.26 C23.32 73.71, 48.48 47.35, 88.83 0.37 M0.26 102.26 C32.57 67.13, 62.79 29.52, 88.83 0.37 M0.4 114.3 C32.35 79.33, 62.63 40.52, 99.46 0.34 M0.4 114.3 C37.32 71.55, 75.96 28.52, 99.46 0.34 M0.53 126.34 C36.26 88.54, 71.32 47.01, 110.09 0.3 M0.53 126.34 C26.68 93.18, 54.85 62.11, 110.09 0.3 M0.66 138.38 C29.4 105.86, 53.37 74.94, 120.72 0.27 M0.66 138.38 C40.89 93.24, 79.98 49.29, 120.72 0.27 M0.8 150.42 C28.8 117.76, 55.1 88.29, 131.35 0.23 M0.8 150.42 C28.4 117.06, 57.24 85, 131.35 0.23 M0.27 163.22 C56.07 100.02, 109.93 37.03, 141.98 0.2 M0.27 163.22 C47.23 110.14, 94.26 58.09, 141.98 0.2 M0.41 175.26 C38.85 135.21, 75.72 92.22, 152.61 0.16 M0.41 175.26 C43.38 128.87, 84.65 81.11, 152.61 0.16 M0.54 187.3 C48.39 132.1, 100.05 73.49, 163.24 0.13 M0.54 187.3 C41.07 138.36, 82.29 90.32, 163.24 0.13 M0.67 199.34 C67.57 122.5, 135.72 44.95, 173.87 0.09 M0.67 199.34 C49.74 141.44, 100.12 83.14, 173.87 0.09 M0.81 211.38 C52.16 152.75, 102.37 95.61, 184.5 0.06 M0.81 211.38 C62.59 140.28, 122.59 70.35, 184.5 0.06 M0.94 223.42 C69.25 145.11, 136.86 67.72, 195.13 0.03 M0.94 223.42 C68.78 145.68, 136.57 68.84, 195.13 0.03 M0.42 236.22 C57.94 170.34, 113.79 101.97, 205.76 -0.01 M0.42 236.22 C42.73 186.61, 84.44 138.59, 205.76 -0.01 M0.55 248.26 C57.41 184.96, 112.51 119.27, 216.39 -0.04 M0.55 248.26 C84.85 153, 168.08 58.46, 216.39 -0.04 M0.68 260.3 C66.62 183.86, 132.79 110.57, 227.02 -0.08 M0.68 260.3 C59.73 194.79, 115.82 128.08, 227.02 -0.08 M2.13 270.83 C49.64 215.36, 99.1 158.96, 237.65 -0.11 M2.13 270.83 C83.8 175.9, 165.6 82.67, 237.65 -0.11 M5.54 279.1 C96.52 175.78, 186.37 70.2, 248.28 -0.15 M5.54 279.1 C75.24 200.26, 145.12 120.11, 248.28 -0.15 M10.92 285.1 C87.56 194.43, 165.2 104.16, 258.91 -0.18 M10.92 285.1 C70.8 215.22, 131.42 145.89, 258.91 -0.18 M18.27 288.84 C119.52 174.64, 217.57 60.96, 269.54 -0.22 M18.27 288.84 C82.84 215.54, 145.86 142.24, 269.54 -0.22 M27.59 290.31 C90.79 216.11, 156.28 144.22, 280.17 -0.25 M27.59 290.31 C97.4 207.93, 167.63 127.37, 280.17 -0.25 M37.57 291.03 C113.24 203.96, 187.41 116.75, 290.8 -0.28 M37.57 291.03 C121.68 195.4, 205.21 98.69, 290.8 -0.28 M48.2 291 C131.7 194.93, 215.85 98.23, 300.78 0.44 M48.2 291 C131.04 195.48, 213.88 99.6, 300.78 0.44 M58.83 290.96 C119.67 221.53, 179.78 154.12, 311.41 0.4 M58.83 290.96 C118.73 224.44, 177.29 158.05, 311.41 0.4 M69.46 290.93 C119.26 230.37, 171.44 173.56, 322.04 0.37 M69.46 290.93 C135.88 214.14, 203.42 135.04, 322.04 0.37 M80.09 290.9 C138.25 223.73, 198.35 153.57, 332.67 0.33 M80.09 290.9 C156.77 202.26, 232.03 116.38, 332.67 0.33 M90.72 290.86 C181.36 187.97, 270.74 82.25, 343.3 0.3 M90.72 290.86 C150.16 220.45, 210.67 151.19, 343.3 0.3 M100.69 291.58 C183.95 197.46, 265.67 99.66, 353.93 0.26 M100.69 291.58 C154.01 231.14, 206.69 169.58, 353.93 0.26 M111.32 291.55 C172.85 220.92, 232.56 150.68, 364.56 0.23 M111.32 291.55 C206.58 182.54, 300.72 74.42, 364.56 0.23 M121.95 291.51 C179.88 224.15, 240.72 155.01, 375.19 0.19 M121.95 291.51 C190.79 211.77, 259.42 132.7, 375.19 0.19 M132.58 291.48 C213.86 197.15, 296.18 104.03, 385.82 0.16 M132.58 291.48 C204.79 210.88, 275.64 129.08, 385.82 0.16 M143.21 291.44 C212.9 214.89, 281.87 134.71, 396.45 0.12 M143.21 291.44 C228.15 195.11, 311.71 99.05, 396.45 0.12 M153.84 291.41 C212.81 224.46, 272.11 156.92, 407.08 0.09 M153.84 291.41 C247.79 185.77, 338.68 79.32, 407.08 0.09 M164.47 291.37 C223.89 223.55, 283.97 154.81, 417.71 0.06 M164.47 291.37 C230.57 214.74, 295.71 138.47, 417.71 0.06 M175.1 291.34 C233.48 225.9, 290.44 162.46, 428.34 0.02 M175.1 291.34 C250.41 204.26, 325.78 117.18, 428.34 0.02 M185.73 291.3 C268.12 195.56, 352.65 99.79, 438.97 -0.01 M185.73 291.3 C255.11 212.84, 324.28 134.51, 438.97 -0.01 M196.36 291.27 C277.63 200.74, 355.65 109.1, 449.6 -0.05 M196.36 291.27 C285.26 191.47, 372.63 90.37, 449.6 -0.05 M206.99 291.24 C267.24 222.68, 328.35 151.35, 460.23 -0.08 M206.99 291.24 C309.01 174.75, 410.14 57.58, 460.23 -0.08 M217.62 291.2 C302.79 191.67, 387.5 94.2, 470.86 -0.12 M217.62 291.2 C283.36 216.08, 347.41 141.68, 470.86 -0.12 M228.25 291.17 C290.57 219.3, 355.63 146.61, 481.49 -0.15 M228.25 291.17 C283.7 227.44, 340.45 162.6, 481.49 -0.15 M238.88 291.13 C313.91 207.02, 388.55 121.04, 492.12 -0.19 M238.88 291.13 C325.47 189.81, 414.73 89.24, 492.12 -0.19 M249.51 291.1 C336.03 194.93, 419.71 96.31, 502.75 -0.22 M249.51 291.1 C337.25 190.92, 424.96 90.44, 502.75 -0.22 M260.14 291.06 C313.17 228.36, 368.7 166.22, 513.38 -0.25 M260.14 291.06 C320.86 220.75, 381.64 150.28, 513.38 -0.25 M270.77 291.03 C337.22 216.21, 399.84 141.38, 523.35 0.47 M270.77 291.03 C348.39 201.79, 426.27 111.79, 523.35 0.47 M281.4 290.99 C351.01 212.05, 418.99 133.45, 533.98 0.43 M281.4 290.99 C362.82 199.09, 444.66 104.28, 533.98 0.43 M292.03 290.96 C360.52 211.31, 427.94 131.51, 544.61 0.4 M292.03 290.96 C362.87 207.91, 435.19 125.54, 544.61 0.4 M302.66 290.93 C373.29 211.33, 442.28 129.89, 555.24 0.36 M302.66 290.93 C371.59 213.01, 439.48 134.25, 555.24 0.36 M313.29 290.89 C372.06 222.82, 431.35 155.47, 565.87 0.33 M313.29 290.89 C409.1 182.45, 504.17 73.7, 565.87 0.33 M323.92 290.86 C372.56 230.8, 425.43 171.38, 576.5 0.29 M323.92 290.86 C411.61 190.45, 499.03 90.19, 576.5 0.29 M333.9 291.58 C407.82 209.51, 478.48 126.29, 587.14 0.26 M333.9 291.58 C414.89 197.01, 496.65 102.53, 587.14 0.26 M344.53 291.54 C404 222.72, 464.64 156.08, 597.77 0.22 M344.53 291.54 C417.49 208.84, 490.49 124.75, 597.77 0.22 M355.16 291.51 C446.75 186.92, 536.6 82.47, 608.4 0.19 M355.16 291.51 C455.79 177.09, 555.68 62.56, 608.4 0.19 M365.79 291.47 C446.1 195.16, 529.85 99.67, 619.03 0.16 M365.79 291.47 C422.73 227.71, 478.66 163.03, 619.03 0.16 M376.42 291.44 C447.94 209.92, 520.94 128.57, 629.66 0.12 M376.42 291.44 C450.31 205.09, 525.95 119.24, 629.66 0.12 M387.05 291.4 C451.34 215.15, 515.33 141.94, 640.29 0.09 M387.05 291.4 C476.93 186.89, 566.48 83.99, 640.29 0.09 M397.68 291.37 C465.81 210.65, 535.89 130.6, 650.92 0.05 M397.68 291.37 C464.28 214.43, 529.7 137.43, 650.92 0.05 M408.31 291.34 C498.18 186.94, 587.35 83.73, 661.55 0.02 M408.31 291.34 C478.24 210.58, 547.97 129.54, 661.55 0.02 M418.94 291.3 C481.92 220.65, 541.55 151.31, 672.18 -0.02 M418.94 291.3 C512.18 185.27, 604.06 79.47, 672.18 -0.02 M429.57 291.27 C529.94 177.09, 628.12 63.14, 682.81 -0.05 M429.57 291.27 C495.24 214.57, 560.87 139.86, 682.81 -0.05 M440.2 291.23 C517.52 206.99, 590.49 119.41, 693.44 -0.09 M440.2 291.23 C540.24 175.24, 641.09 59.15, 693.44 -0.09 M450.83 291.2 C522.49 210.09, 592.5 128.26, 704.07 -0.12 M450.83 291.2 C543.59 185.3, 634.02 80.51, 704.07 -0.12 M461.46 291.16 C518.86 225.43, 577 161.46, 714.7 -0.16 M461.46 291.16 C512.46 230.97, 565.12 170.62, 714.7 -0.16 M472.09 291.13 C566.14 183.19, 661.23 76.42, 725.33 -0.19 M472.09 291.13 C554.96 196.31, 635.86 103.35, 725.33 -0.19 M482.72 291.09 C539.68 227.38, 596.92 162.4, 735.96 -0.22 M482.72 291.09 C571.93 188.83, 660.74 86.35, 735.96 -0.22 M493.35 291.06 C583.51 185.25, 675.44 81.73, 746.59 -0.26 M493.35 291.06 C556.69 216.48, 621.79 141.37, 746.59 -0.26 M503.98 291.02 C595.39 187.9, 686.68 81.96, 756.56 0.46 M503.98 291.02 C565.26 222.81, 624.14 155.13, 756.56 0.46 M514.61 290.99 C610.91 178.11, 710.01 66.3, 765.88 1.94 M514.61 290.99 C608.7 182.46, 702.7 74.15, 765.88 1.94 M525.24 290.96 C605.61 200.63, 684.89 109.02, 773.88 4.92 M525.24 290.96 C621.58 179.03, 718.86 66.58, 773.88 4.92 M535.87 290.92 C616.91 194.01, 699.07 100.73, 779.92 10.17 M535.87 290.92 C598.93 218.15, 663.22 143.82, 779.92 10.17 M546.5 290.89 C608.86 221.55, 668.69 151.58, 783.99 17.68 M546.5 290.89 C636.18 185.54, 727.82 80.6, 783.99 17.68 M557.13 290.85 C633.05 204.05, 707.46 120.01, 786.09 27.46 M557.13 290.85 C648.25 188.52, 738.19 85.84, 786.09 27.46 M567.1 291.57 C640.42 206.26, 713.89 123.67, 786.23 39.5 M567.1 291.57 C635.46 214.16, 703.43 134.25, 786.23 39.5 M577.73 291.54 C625.91 236.93, 670.46 184.92, 786.36 51.54 M577.73 291.54 C622.25 240.79, 665.44 189.23, 786.36 51.54 M588.36 291.5 C667.46 200.82, 743.94 111.76, 785.84 64.34 M588.36 291.5 C648.87 219.96, 709.94 148.6, 785.84 64.34 M598.99 291.47 C661.82 221.14, 724.54 148.6, 785.97 76.38 M598.99 291.47 C645.37 234.81, 694.25 179.59, 785.97 76.38 M609.62 291.43 C658.86 233.74, 707.69 175.42, 786.1 88.42 M609.62 291.43 C651.6 242.18, 693.9 193.58, 786.1 88.42 M620.25 291.4 C671.93 232.77, 722.64 175.56, 786.24 100.46 M620.25 291.4 C660.92 243.97, 701.76 195.92, 786.24 100.46 M630.88 291.37 C684.39 231.42, 734.38 171.57, 786.37 112.5 M630.88 291.37 C693.25 219.04, 754.91 147.13, 786.37 112.5 M641.51 291.33 C673.84 252.67, 707.88 213.65, 785.85 125.29 M641.51 291.33 C696.27 226.27, 752.95 161.99, 785.85 125.29 M652.14 291.3 C690.62 249.28, 725.73 210.24, 785.98 137.34 M652.14 291.3 C681.11 258.23, 709.06 225.53, 785.98 137.34 M662.77 291.26 C707.14 240.75, 748.63 195.02, 786.11 149.38 M662.77 291.26 C694.76 254.86, 727.36 219.78, 786.11 149.38 M673.4 291.23 C706.44 253.71, 741.16 214.37, 786.25 161.42 M673.4 291.23 C712.48 243.18, 753.06 197.28, 786.25 161.42 M684.03 291.19 C717.52 253.28, 752.37 215.96, 786.38 173.46 M684.03 291.19 C717.16 252.62, 751.84 214.4, 786.38 173.46 M694.66 291.16 C717.84 263.04, 738.99 239.45, 785.86 186.25 M694.66 291.16 C715.1 267.13, 734.01 244.29, 785.86 186.25 M705.29 291.12 C734.78 256.69, 769.34 221.26, 785.99 198.29 M705.29 291.12 C724.37 268.18, 744.8 245.91, 785.99 198.29 M715.92 291.09 C730.88 272.48, 746.14 256.78, 786.12 210.34 M715.92 291.09 C730.29 273.27, 747.22 255.08, 786.12 210.34 M726.55 291.05 C748.16 264.98, 773.02 237.42, 786.25 222.38 M726.55 291.05 C746.81 267.29, 765.57 245.24, 786.25 222.38 M737.18 291.02 C749.77 277.48, 765.24 261.62, 786.39 234.42 M737.18 291.02 C753.77 271.99, 771.26 253.52, 786.39 234.42 M747.81 290.99 C759.81 276.5, 773.15 261.45, 785.87 247.21 M747.81 290.99 C760.33 277.04, 772.78 262.78, 785.87 247.21 M758.44 290.95 C765.03 285.69, 771.67 277.41, 786 259.25 M758.44 290.95 C769.06 280.55, 777.56 269.51, 786 259.25 M771.04 288.65 C775.24 286.1, 778.25 279.39, 784.16 273.56 M771.04 288.65 C776.43 282.69, 780.84 276.12, 784.16 273.56" stroke="#ffec99" stroke-width="1" fill="none"></path><path d="M32 0 C291.75 -1.26, 550.76 -1.15, 754.1 0 M754.1 0 C774.89 1.7, 784.41 12.6, 786.1 32 M786.1 32 C785.9 93.3, 787.13 156.74, 786.1 259.15 M786.1 259.15 C786.13 281.23, 775.78 292.77, 754.1 291.15 M754.1 291.15 C476.03 289.52, 198.27 290.14, 32 291.15 M32 291.15 C9.71 292.93, -0.67 282.33, 0 259.15 M0 259.15 C-0.47 203.94, -2.32 146.78, 0 32 M0 32 C0.45 10.26, 10.95 0.87, 32 0" stroke="#1e1e1e" stroke-width="2.5" fill="none" stroke-dasharray="1.5 8"></path></g><g stroke-linecap="round" transform="translate(35.62087498857727 92.68555109950466) rotate(0 42.507360776506175 37.266727256114905)"><path d="M18.63 0 C30.41 -1.12, 42.14 1.68, 66.38 0 C79.56 1.21, 81.72 4.11, 85.01 18.63 C81.14 28.17, 86.17 35.6, 85.01 55.9 C85.97 71.2, 82.36 75.51, 66.38 74.53 C53.21 74.39, 37.03 72.62, 18.63 74.53 C3.09 73.67, -1.68 67.99, 0 55.9 C-2.86 46.44, -3.21 31.01, 0 18.63 C-1.14 5.78, 8.19 -0.34, 18.63 0" stroke="none" stroke-width="0" fill="#ffec99"></path><path d="M18.63 0 C34.75 0.64, 52.96 -0.88, 66.38 0 M18.63 0 C36.76 0.14, 56.26 -1.26, 66.38 0 M66.38 0 C77.65 -0.17, 85.2 6.24, 85.01 18.63 M66.38 0 C79.67 0.4, 86.88 8.15, 85.01 18.63 M85.01 18.63 C83.75 28.45, 85.3 40.93, 85.01 55.9 M85.01 18.63 C84.39 33.75, 84.01 48.07, 85.01 55.9 M85.01 55.9 C86.83 67, 80.14 74.98, 66.38 74.53 M85.01 55.9 C84.55 68.65, 79.81 73.85, 66.38 74.53 M66.38 74.53 C51.9 75.35, 41.06 74.3, 18.63 74.53 M66.38 74.53 C50.08 74.53, 35.16 75.34, 18.63 74.53 M18.63 74.53 C7.4 73.5, -1 67.72, 0 55.9 M18.63 74.53 C5.5 73.79, -0.42 67.83, 0 55.9 M0 55.9 C1.22 47, 1.68 41.23, 0 18.63 M0 55.9 C-0.68 45.72, -1.02 34.5, 0 18.63 M0 18.63 C-1.23 6.63, 6.39 0.68, 18.63 0 M0 18.63 C-2.03 4.51, 5.15 -0.71, 18.63 0" stroke="#1e1e1e" stroke-width="2" fill="none"></path></g><g stroke-linecap="round" transform="translate(50.27921589559173 107.3438920065189) rotate(0 42.507360776506175 37.266727256114905)"><path d="M18.63 0 C36.31 -2.54, 57.33 1.09, 66.38 0 C80.01 -3.29, 82.91 4.24, 85.01 18.63 C85.73 29.71, 84.01 38.87, 85.01 55.9 C87.9 71.88, 79.78 74.57, 66.38 74.53 C47.37 74.22, 26.73 71.7, 18.63 74.53 C5.35 72.85, -0.34 69.38, 0 55.9 C2.83 41.58, -0.32 32.55, 0 18.63 C-0.43 8.19, 5.87 -3.25, 18.63 0" stroke="none" stroke-width="0" fill="#ffec99"></path><path d="M18.63 0 C34.81 -1.13, 48.49 2.14, 66.38 0 M18.63 0 C29.54 0.98, 38.43 -0.45, 66.38 0 M66.38 0 C78.64 0.19, 85.05 6.97, 85.01 18.63 M66.38 0 C79.2 1.87, 86.96 6.49, 85.01 18.63 M85.01 18.63 C82.97 28.73, 83.82 39.74, 85.01 55.9 M85.01 18.63 C85.97 27.69, 85.78 39.41, 85.01 55.9 M85.01 55.9 C83.69 69.66, 79.25 74.13, 66.38 74.53 M85.01 55.9 C85.34 69.33, 78.12 73.68, 66.38 74.53 M66.38 74.53 C55.43 73.86, 42.82 74.57, 18.63 74.53 M66.38 74.53 C56.5 73.94, 47.26 74.75, 18.63 74.53 M18.63 74.53 C5.17 73.54, -0.61 67.7, 0 55.9 M18.63 74.53 C5.46 74.11, -0.49 66.36, 0 55.9 M0 55.9 C-0.8 46.12, 1.44 32.75, 0 18.63 M0 55.9 C0.66 42.35, 0.27 29.93, 0 18.63 M0 18.63 C0.42 6.39, 6.89 -1.77, 18.63 0 M0 18.63 C-1.7 5.15, 5.51 -0.55, 18.63 0" stroke="#1e1e1e" stroke-width="2" fill="none"></path></g><g stroke-linecap="round" transform="translate(66.10214202935913 125.49598859379398) rotate(0 42.507360776506175 37.266727256114905)"><path d="M18.63 0 C33.34 2.39, 54.56 1.34, 66.38 0 C75.51 -2.1, 83.04 4.72, 85.01 18.63 C85.78 30.21, 85.3 47.28, 85.01 55.9 C88.57 69.3, 78.84 77.96, 66.38 74.53 C51.49 72.6, 34.68 73.64, 18.63 74.53 C4.53 74.2, 1.06 68.25, 0 55.9 C-2.69 44.48, -0.61 33.3, 0 18.63 C1.98 5.87, 2.96 0.75, 18.63 0" stroke="none" stroke-width="0" fill="#ffec99"></path><path d="M18.63 0 C34.79 -0.77, 55.76 -1.92, 66.38 0 M18.63 0 C38.43 -1.09, 55.95 -0.37, 66.38 0 M66.38 0 C78.99 0.03, 85.77 6.56, 85.01 18.63 M66.38 0 C80.67 1.94, 85.29 5.27, 85.01 18.63 M85.01 18.63 C85.24 26.48, 86.59 35.57, 85.01 55.9 M85.01 18.63 C83.95 33.69, 85.74 47.24, 85.01 55.9 M85.01 55.9 C86.35 68.77, 78.4 74.82, 66.38 74.53 M85.01 55.9 C86.02 67.64, 77.95 73.2, 66.38 74.53 M66.38 74.53 C49.56 74.21, 33.66 72.89, 18.63 74.53 M66.38 74.53 C53.64 75.6, 41.91 74.1, 18.63 74.53 M18.63 74.53 C5.21 73.93, -0.62 67.67, 0 55.9 M18.63 74.53 C5.79 74.04, -1.96 68.51, 0 55.9 M0 55.9 C1.47 47.05, -0.42 36.34, 0 18.63 M0 55.9 C-0.67 45.07, -0.41 33.93, 0 18.63 M0 18.63 C0.18 6.89, 4.45 -1.48, 18.63 0 M0 18.63 C-1.06 5.51, 5.67 1.87, 18.63 0" stroke="#1e1e1e" stroke-width="2" fill="none"></path></g><g transform="translate(91.26951409736921 150.262715849909) rotate(0 17.339988708496094 12.5)"><text x="17.339988708496094" y="0" font-family="Virgil, Segoe UI Emoji" font-size="20px" fill="#1e1e1e" text-anchor="middle" style="white-space: pre;" direction="ltr" dominant-baseline="text-before-edge">VEs</text></g><g stroke-linecap="round"><g transform="translate(157.9023237977044 166.56327995803895) rotate(0 34.355264189232 -0.04140603569078394)"><path d="M-0.32 1.02 C10.86 1.36, 56.24 1.14, 67.7 1.08 M1.71 0.51 C13.2 0.63, 58.92 -0.13, 69.88 -0.43" stroke="#1e1e1e" stroke-width="2" fill="none"></path></g><g transform="translate(157.9023237977044 166.56327995803895) rotate(0 34.355264189232 -0.04140603569078394)"><path d="M46.57 8.6 C56.47 3.83, 64.84 1.84, 69.88 -0.43 M46.57 8.6 C54.32 5.45, 63.4 2.29, 69.88 -0.43" stroke="#1e1e1e" stroke-width="2" fill="none"></path></g><g transform="translate(157.9023237977044 166.56327995803895) rotate(0 34.355264189232 -0.04140603569078394)"><path d="M46.22 -8.5 C56.11 -7.31, 64.6 -3.32, 69.88 -0.43 M46.22 -8.5 C54.24 -5.48, 63.45 -2.48, 69.88 -0.43" stroke="#1e1e1e" stroke-width="2" fill="none"></path></g></g><mask></mask><g stroke-linecap="round" transform="translate(230.10660785642904 112.48349995431568) rotate(0 112.3824743817222 75)"><path d="M32 0 C68.6 -3.9, 100.67 -2.58, 192.76 0 C212.61 1.65, 221.17 11.07, 224.76 32 C227.08 64.79, 225.18 90.5, 224.76 118 C228.19 139.31, 215.3 149.86, 192.76 150 C146.37 145.81, 101.36 148.55, 32 150 C10.59 149.91, -2.87 142.14, 0 118 C-0.29 101.88, -0.2 78.54, 0 32 C0.75 9.4, 8.42 -1.39, 32 0" stroke="none" stroke-width="0" fill="#ffec99"></path><path d="M32 0 C66 0.57, 102.86 -0.16, 192.76 0 M32 0 C93.89 1.02, 155.97 1.3, 192.76 0 M192.76 0 C214.45 1.62, 226.45 10.91, 224.76 32 M192.76 0 C213.16 -1.47, 223.48 8.58, 224.76 32 M224.76 32 C223.69 61.53, 223.35 88.58, 224.76 118 M224.76 32 C224.46 50.91, 225.35 68.28, 224.76 118 M224.76 118 C225.05 140.21, 213.5 149.26, 192.76 150 M224.76 118 C223.43 140.43, 211.89 150.68, 192.76 150 M192.76 150 C144.43 149.65, 98.08 150.74, 32 150 M192.76 150 C147.4 150.46, 102.78 150.65, 32 150 M32 150 C10.02 149.63, -0.43 137.63, 0 118 M32 150 C10.85 149.38, 1.44 138.3, 0 118 M0 118 C0.23 84.81, -1.64 53.02, 0 32 M0 118 C-0.01 99.75, 0.12 80.45, 0 32 M0 32 C-1.48 9.75, 10.05 -0.47, 32 0 M0 32 C1.87 12.24, 9.77 -0.34, 32 0" stroke="#1e1e1e" stroke-width="2" fill="none"></path></g><g transform="translate(235.46915425963562 149.98349995431568) rotate(0 107.01992797851562 37.5)"><text x="107.01992797851562" y="0" font-family="Virgil, Segoe UI Emoji" font-size="20px" fill="#1e1e1e" text-anchor="middle" style="white-space: pre;" direction="ltr" dominant-baseline="text-before-edge"></text><text x="107.01992797851562" y="25" font-family="Virgil, Segoe UI Emoji" font-size="20px" fill="#1e1e1e" text-anchor="middle" style="white-space: pre;" direction="ltr" dominant-baseline="text-before-edge">* well formed</text><text x="107.01992797851562" y="50" font-family="Virgil, Segoe UI Emoji" font-size="20px" fill="#1e1e1e" text-anchor="middle" style="white-space: pre;" direction="ltr" dominant-baseline="text-before-edge">* contains 2/3 stake</text></g><g stroke-linecap="round"><g transform="translate(468.846579340915 180.3916666703251) rotate(0 41.89372568089448 0.16328239363963348)"><path d="M1.16 -0.31 C15.08 0.08, 70.9 1.36, 84.52 1.35 M0.31 -1.52 C14.04 -1.35, 69.8 -0.58, 83.95 -0.23" stroke="#1e1e1e" stroke-width="2" fill="none"></path></g><g transform="translate(468.846579340915 180.3916666703251) rotate(0 41.89372568089448 0.16328239363963348)"><path d="M60.3 7.88 C68.96 5.74, 80.29 -0.2, 83.95 -0.23 M60.3 7.88 C66.06 6.27, 71.95 4.74, 83.95 -0.23" stroke="#1e1e1e" stroke-width="2" fill="none"></path></g><g transform="translate(468.846579340915 180.3916666703251) rotate(0 41.89372568089448 0.16328239363963348)"><path d="M60.62 -9.21 C69.01 -4.77, 80.22 -4.12, 83.95 -0.23 M60.62 -9.21 C66.28 -6.68, 72.1 -4.07, 83.95 -0.23" stroke="#1e1e1e" stroke-width="2" fill="none"></path></g></g><mask></mask><g transform="translate(302.31089191515 128.44603403588053) rotate(0 37.35197448730469 17.5)"><text x="0" y="0" font-family="Virgil, Segoe UI Emoji" font-size="28px" fill="#1e1e1e" text-anchor="start" style="white-space: pre;" direction="ltr" dominant-baseline="text-before-edge">Verify</text></g><g stroke-linecap="round" transform="translate(548.0383747601591 43.77297157585372) rotate(0 100.73662211418605 121.11686358237353)"><path d="M32 0 C80.96 -1.59, 128.01 2.6, 169.47 0 C194.36 0.97, 201.51 14.1, 201.47 32 C201.94 83.43, 199.42 137.8, 201.47 210.23 C199.79 231.23, 191.86 242.16, 169.47 242.23 C125.36 243.83, 86.54 243.73, 32 242.23 C12.65 241.89, -3.25 232.32, 0 210.23 C4.55 165.4, 0.39 118.84, 0 32 C-1.25 9.73, 12.45 2.65, 32 0" stroke="none" stroke-width="0" fill="#ffec99"></path><path d="M32 0 C62.42 0.14, 93.22 0.46, 169.47 0 M32 0 C83.99 -0.8, 136.24 -1.07, 169.47 0 M169.47 0 C191.24 -0.95, 203.26 10, 201.47 32 M169.47 0 C192.94 -1.15, 202.88 8.64, 201.47 32 M201.47 32 C204.43 93.38, 202.68 154.15, 201.47 210.23 M201.47 32 C200.36 93.72, 199.98 154.78, 201.47 210.23 M201.47 210.23 C201.26 231.1, 191.3 240.44, 169.47 242.23 M201.47 210.23 C200.61 229.73, 191.2 241.75, 169.47 242.23 M169.47 242.23 C113.64 240.91, 59.19 240.87, 32 242.23 M169.47 242.23 C130.84 240.79, 92.66 240.61, 32 242.23 M32 242.23 C12.37 243.57, -0.19 232.37, 0 210.23 M32 242.23 C10.61 241.01, 1.5 229.57, 0 210.23 M0 210.23 C1.27 152.84, -0.67 92.6, 0 32 M0 210.23 C1.36 165.64, 0.15 119.53, 0 32 M0 32 C-1.6 11.92, 11.09 0.67, 32 0 M0 32 C-2.1 9.32, 9.41 -0.95, 32 0" stroke="#1e1e1e" stroke-width="2" fill="none"></path></g><g transform="translate(585.3051020162738 49.25423861663626) rotate(0 58.309974670410156 17.5)"><text x="0" y="0" font-family="Virgil, Segoe UI Emoji" font-size="28px" fill="#1e1e1e" text-anchor="start" style="white-space: pre;" direction="ltr" dominant-baseline="text-before-edge">Proposal</text></g><g stroke-linecap="round" transform="translate(564.342567934711 86.86262496573704) rotate(0 86.76159939314266 39.59589770962202)"><path d="M19.8 0 C62.44 3.76, 106.72 1.85, 153.73 0 C166.96 3.43, 173.5 7.8, 173.52 19.8 C170.28 30.66, 171.72 42.91, 173.52 59.39 C174.58 72.52, 166.83 76.32, 153.73 79.19 C101.95 78.54, 54.44 78.63, 19.8 79.19 C3.35 79.94, -1.27 70.35, 0 59.39 C-2.12 52.01, -1.75 37.77, 0 19.8 C1.78 9.25, 5.32 0.04, 19.8 0" stroke="none" stroke-width="0" fill="#ffec99"></path><path d="M19.8 0 C59.63 0.33, 99.57 1.67, 153.73 0 M19.8 0 C61.02 -0.05, 103.57 0.38, 153.73 0 M153.73 0 C168.71 -0.67, 175.38 5.6, 173.52 19.8 M153.73 0 C168.33 -2.02, 174.49 8.69, 173.52 19.8 M173.52 19.8 C173.38 29.34, 174.66 37.72, 173.52 59.39 M173.52 19.8 C172.33 30.51, 173.19 40.39, 173.52 59.39 M173.52 59.39 C174.02 70.8, 166.17 77.6, 153.73 79.19 M173.52 59.39 C173.92 72.11, 169.2 80.56, 153.73 79.19 M153.73 79.19 C119.88 78.14, 86.91 78.36, 19.8 79.19 M153.73 79.19 C125.58 78.38, 97.05 79.5, 19.8 79.19 M19.8 79.19 C6.41 80, -0.05 71.52, 0 59.39 M19.8 79.19 C8.1 77.2, 0.59 71.18, 0 59.39 M0 59.39 C-1.8 45.21, -0.95 33.36, 0 19.8 M0 59.39 C-0.71 48.31, -1.12 38.15, 0 19.8 M0 19.8 C0.42 7.27, 4.77 -1.17, 19.8 0 M0 19.8 C-1.26 5.65, 7.65 -2.3, 19.8 0" stroke="#1e1e1e" stroke-width="2" fill="none"></path></g><g transform="translate(593.4942048644743 101.45852267535906) rotate(0 57.609962463378906 25)"><text x="57.609962463378906" y="0" font-family="Virgil, Segoe UI Emoji" font-size="20px" fill="#1e1e1e" text-anchor="middle" style="white-space: pre;" direction="ltr" dominant-baseline="text-before-edge">Injected VE</text><text x="57.609962463378906" y="25" font-family="Virgil, Segoe UI Emoji" font-size="20px" fill="#1e1e1e" text-anchor="middle" style="white-space: pre;" direction="ltr" dominant-baseline="text-before-edge">Price Data</text></g><g transform="translate(234.7649487634444 31.5564962481601) rotate(0 151.91993713378906 22.5)"><text x="0" y="0" font-family="Virgil, Segoe UI Emoji" font-size="36px" fill="#1e1e1e" text-anchor="start" style="white-space: pre;" direction="ltr" dominant-baseline="text-before-edge">Prepare Proposal</text></g></svg>