<svg version="1.1" xmlns="http://www.w3.org/2000/svg" viewBox="0 0 1225.3457096899656 636.0655849526499" width="1225.3457096899656" height="636.0655849526499">
  <!-- svg-source:excalidraw -->
  
  <defs>
    <style class="style-fonts">
      @font-face {
        font-family: "Virgil";
        src: url("https://excalidraw.com/Virgil.woff2");
      }
      @font-face {
        font-family: "Cascadia";
        src: url("https://excalidraw.com/Cascadia.woff2");
      }
      @font-face {
        font-family: "Assistant";
        src: url("https://excalidraw.com/Assistant-Regular.woff2");
      }
    </style>
    
  </defs>
  <rect x="0" y="0" width="1225.3457096899656" height="636.0655849526499" fill="#ffffff"></rect><g stroke-linecap="round" transform="translate(10 10) rotate(0 602.6728548449828 308.03279247632497)"><path d="M7.86 8.16 C7.86 8.16, 7.86 8.16, 7.86 8.16 M7.86 8.16 C7.86 8.16, 7.86 8.16, 7.86 8.16 M1.43 27.75 C11.4 16.98, 20.37 6.82, 24.4 1.33 M1.43 27.75 C6.61 21.62, 12.13 15.98, 24.4 1.33 M0.26 41.3 C6.68 31.35, 16.57 21.07, 36.34 -0.21 M0.26 41.3 C13.1 26.62, 25.98 12.29, 36.34 -0.21 M0.39 53.34 C18.82 32.31, 35.88 14.95, 46.97 -0.25 M0.39 53.34 C15.32 35.2, 30.33 19.28, 46.97 -0.25 M0.52 65.38 C11.4 52.92, 26.04 38.48, 57.6 -0.28 M0.52 65.38 C22.19 41.38, 41.28 18.35, 57.6 -0.28 M0 78.17 C16 59.27, 33.18 38.34, 67.57 0.44 M0 78.17 C22.79 50.93, 47.15 24.36, 67.57 0.44 M0.13 90.22 C27.72 58.46, 54.19 28.08, 78.2 0.41 M0.13 90.22 C15.37 71.88, 32.05 51.58, 78.2 0.41 M0.26 102.26 C20.34 78.16, 41.19 57.25, 88.83 0.37 M0.26 102.26 C20.04 81.03, 39.43 56.87, 88.83 0.37 M0.4 114.3 C36.81 71.54, 70.57 33.02, 99.46 0.34 M0.4 114.3 C23.19 89.76, 43.75 65.13, 99.46 0.34 M0.53 126.34 C27.92 93.03, 55.79 60.75, 110.09 0.3 M0.53 126.34 C34.55 86.92, 69.56 48.01, 110.09 0.3 M0.01 139.13 C46.64 86.84, 97.28 29.5, 120.72 0.27 M0.01 139.13 C35.33 98.74, 70.26 55.62, 120.72 0.27 M0.14 151.17 C29.42 116.22, 59.13 84.84, 131.35 0.23 M0.14 151.17 C48.64 95.28, 98.76 37.47, 131.35 0.23 M0.27 163.22 C49.72 106.37, 96.62 49.62, 141.98 0.2 M0.27 163.22 C48.35 107.85, 95.82 51.89, 141.98 0.2 M0.41 175.26 C52.83 116.55, 105.55 53.82, 152.61 0.16 M0.41 175.26 C45.34 124.97, 88.62 74.35, 152.61 0.16 M0.54 187.3 C50.99 127.48, 104.21 66.1, 163.24 0.13 M0.54 187.3 C43.56 140, 85.55 92.1, 163.24 0.13 M0.02 200.09 C61.5 131.03, 121.28 59.35, 173.87 0.09 M0.02 200.09 C53.21 140.59, 105.76 80.92, 173.87 0.09 M0.15 212.13 C72.38 128.94, 145 46.75, 184.5 0.06 M0.15 212.13 C56.1 144.6, 114.55 77.68, 184.5 0.06 M0.28 224.17 C68.9 144.9, 136.59 68.12, 195.13 0.03 M0.28 224.17 C70.02 144.62, 138.06 64.99, 195.13 0.03 M0.42 236.22 C47.24 183.56, 92.38 131.54, 205.76 -0.01 M0.42 236.22 C44.04 186.6, 87.75 135.91, 205.76 -0.01 M-0.11 249.01 C68.42 169.4, 140.29 88, 216.39 -0.04 M-0.11 249.01 C82.45 153.35, 166.03 57.74, 216.39 -0.04 M0.03 261.05 C57.05 196.24, 108.8 133.69, 227.02 -0.08 M0.03 261.05 C47.57 207.63, 95.84 154.59, 227.02 -0.08 M0.16 273.09 C57.24 203.62, 117.69 135.39, 237.65 -0.11 M0.16 273.09 C54.35 211.24, 107.7 149.5, 237.65 -0.11 M0.29 285.13 C71.49 201.53, 144.36 117.13, 248.28 -0.15 M0.29 285.13 C95.31 178.63, 189.07 70.57, 248.28 -0.15 M0.43 297.17 C98.79 183.98, 197.95 69.87, 258.91 -0.18 M0.43 297.17 C76.49 207.49, 154.13 118.24, 258.91 -0.18 M-0.1 309.97 C99.4 197.34, 197.38 83.53, 269.54 -0.22 M-0.1 309.97 C94.49 200.13, 190.35 90.49, 269.54 -0.22 M0.04 322.01 C101.36 205.68, 201.53 88.76, 280.17 -0.25 M0.04 322.01 C89.97 220.04, 179.94 116.51, 280.17 -0.25 M0.17 334.05 C80.27 240.18, 161.31 148.57, 290.8 -0.28 M0.17 334.05 C63.48 261.41, 125.69 189.58, 290.8 -0.28 M0.3 346.09 C88.64 244.39, 176.35 142.35, 300.78 0.44 M0.3 346.09 C119.07 208.4, 237.09 72.71, 300.78 0.44 M0.44 358.13 C115.87 224.38, 230.22 92.1, 311.41 0.4 M0.44 358.13 C116.43 226.04, 232.08 94.02, 311.41 0.4 M-0.09 370.93 C95.24 261.47, 189.92 150.91, 322.04 0.37 M-0.09 370.93 C102.64 252.51, 204.3 135.68, 322.04 0.37 M0.05 382.97 C76.51 297.11, 153.79 209.2, 332.67 0.33 M0.05 382.97 C93.04 275.29, 186.02 168.47, 332.67 0.33 M0.18 395.01 C118.79 257.63, 236.48 120.97, 343.3 0.3 M0.18 395.01 C97.07 282.11, 193.33 171.3, 343.3 0.3 M0.31 407.05 C131.75 258.64, 262.22 108.13, 353.93 0.26 M0.31 407.05 C121.59 268.37, 242.97 129.45, 353.93 0.26 M0.45 419.09 C79.44 328.06, 158.79 239.36, 364.56 0.23 M0.45 419.09 C135.25 264.26, 270.84 108.4, 364.56 0.23 M-0.08 431.89 C126.95 287.17, 252.4 143.69, 375.19 0.19 M-0.08 431.89 C148.96 259.52, 297.54 88.13, 375.19 0.19 M0.06 443.93 C135.97 287.5, 272.54 130.44, 385.82 0.16 M0.06 443.93 C102.16 330.25, 202.89 214.58, 385.82 0.16 M0.19 455.97 C83.8 359.88, 166.44 265.29, 396.45 0.12 M0.19 455.97 C91.22 349.8, 183.31 244.04, 396.45 0.12 M0.32 468.01 C158.83 283.84, 320.44 98.24, 407.08 0.09 M0.32 468.01 C127.5 319.87, 255.73 171.53, 407.08 0.09 M0.46 480.05 C126.25 337.18, 252.2 191.15, 417.71 0.06 M0.46 480.05 C113.31 352.09, 225.78 223.01, 417.71 0.06 M-0.07 492.85 C108.47 364.63, 218.28 238.43, 428.34 0.02 M-0.07 492.85 C125.83 345.51, 253.72 198.6, 428.34 0.02 M0.07 504.89 C114.96 373.25, 230.05 242.29, 438.97 -0.01 M0.07 504.89 C121.95 366.02, 244.28 225.11, 438.97 -0.01 M0.2 516.93 C105.98 395.78, 213.48 274.29, 449.6 -0.05 M0.2 516.93 C115.51 383.93, 231.71 250.73, 449.6 -0.05 M0.33 528.97 C170.32 334.73, 337.68 142.62, 460.23 -0.08 M0.33 528.97 C125.69 387.86, 250.19 244.79, 460.23 -0.08 M0.47 541.01 C152.6 367.78, 302.74 195.02, 470.86 -0.12 M0.47 541.01 C111.4 412.05, 223.73 283.27, 470.86 -0.12 M-0.06 553.81 C104.33 432.15, 211.36 308.82, 481.49 -0.15 M-0.06 553.81 C189.1 333.03, 379.11 114.42, 481.49 -0.15 M0.08 565.85 C133.38 413.33, 266.68 261, 492.12 -0.19 M0.08 565.85 C185.78 351.98, 371.66 138.2, 492.12 -0.19 M0.21 577.89 C143.78 417.29, 284.06 255.82, 502.75 -0.22 M0.21 577.89 C126.77 432.79, 252.3 288.6, 502.75 -0.22 M1 589.17 C173.45 393.26, 345.37 196.05, 513.38 -0.25 M1 589.17 C106.09 470.2, 210.56 350.69, 513.38 -0.25 M2.44 599.71 C167.84 412.27, 331.1 224.24, 523.35 0.47 M2.44 599.71 C193.28 378.93, 386.35 157.25, 523.35 0.47 M7.17 606.46 C188.91 397.16, 370.54 187.39, 533.98 0.43 M7.17 606.46 C182.2 402.62, 358.31 200.23, 533.98 0.43 M13.21 611.71 C190.74 406.39, 368.36 201.97, 544.61 0.4 M13.21 611.71 C191.91 408.29, 370.01 202.91, 544.61 0.4 M21.21 614.7 C134.75 480.89, 248.9 348.62, 555.24 0.36 M21.21 614.7 C224.43 379.06, 429.62 143.21, 555.24 0.36 M30.53 616.17 C182.88 442.37, 333.56 269.58, 565.87 0.33 M30.53 616.17 C175.51 449.83, 317.95 285.67, 565.87 0.33 M40.5 616.89 C169.84 467.2, 299.02 317.85, 576.5 0.29 M40.5 616.89 C180.48 460.19, 318.57 300.9, 576.5 0.29 M51.13 616.86 C230.05 409.82, 409.36 202.92, 587.14 0.26 M51.13 616.86 C228.19 414.08, 403.22 212.7, 587.14 0.26 M61.76 616.82 C167.17 491.82, 275.86 368.47, 597.77 0.22 M61.76 616.82 C197.07 459.17, 331.98 303.62, 597.77 0.22 M72.39 616.79 C284.39 371.73, 498.99 124.81, 608.4 0.19 M72.39 616.79 C194.25 477.68, 313.73 340.32, 608.4 0.19 M83.03 616.75 C222.54 457.22, 361.26 297.87, 619.03 0.16 M83.03 616.75 C272.93 399.08, 463.49 179.27, 619.03 0.16 M93.66 616.72 C210.18 482.45, 326.27 348.23, 629.66 0.12 M93.66 616.72 C254.18 431.7, 415.21 246.09, 629.66 0.12 M104.29 616.68 C244.96 456.72, 383.44 297.97, 640.29 0.09 M104.29 616.68 C293.93 399.48, 481.5 183.04, 640.29 0.09 M114.92 616.65 C252.32 454.21, 391.78 293.63, 650.92 0.05 M114.92 616.65 C247.4 463.74, 381.75 308.5, 650.92 0.05 M125.55 616.61 C246.11 476.25, 368.52 336.93, 661.55 0.02 M125.55 616.61 C289.5 425.61, 455.22 234.23, 661.55 0.02 M136.18 616.58 C264.79 472.14, 391.22 325.38, 672.18 -0.02 M136.18 616.58 C247.89 491.14, 358.77 364.13, 672.18 -0.02 M146.81 616.55 C296.47 447.1, 444.54 276.88, 682.81 -0.05 M146.81 616.55 C306.02 431.73, 466.41 246.98, 682.81 -0.05 M157.44 616.51 C363.05 379.52, 569.35 141.88, 693.44 -0.09 M157.44 616.51 C283.3 466.92, 411.81 319.45, 693.44 -0.09 M168.07 616.48 C326.88 431.83, 487.15 247.87, 704.07 -0.12 M168.07 616.48 C318.28 444.88, 467.22 274.08, 704.07 -0.12 M178.7 616.44 C380.46 382.58, 583.59 147.4, 714.7 -0.16 M178.7 616.44 C323.79 449.65, 468.12 284.06, 714.7 -0.16 M189.33 616.41 C333.64 448.54, 479.01 280.87, 725.33 -0.19 M189.33 616.41 C397.99 373.04, 608.79 130.19, 725.33 -0.19 M199.96 616.37 C321.05 480.3, 440.84 341.37, 735.96 -0.22 M199.96 616.37 C388.14 398.52, 576.39 181.45, 735.96 -0.22 M210.59 616.34 C397.58 401.55, 585.7 184.72, 746.59 -0.26 M210.59 616.34 C363.8 436.94, 518.35 258.4, 746.59 -0.26 M220.56 617.06 C412.5 397.34, 602.42 176.79, 756.56 0.46 M220.56 617.06 C427.94 375.54, 637.32 135.45, 756.56 0.46 M231.19 617.02 C435.24 380.99, 638.91 146.07, 767.19 0.43 M231.19 617.02 C446.5 370.66, 660.54 124.49, 767.19 0.43 M241.82 616.99 C426.83 403.22, 612.81 189.04, 777.82 0.39 M241.82 616.99 C364.4 475.35, 485.26 335.97, 777.82 0.39 M252.45 616.96 C457.8 378.05, 663.34 141.11, 788.45 0.36 M252.45 616.96 C387.53 461.88, 523.01 306.22, 788.45 0.36 M263.08 616.92 C475.37 372.37, 688.95 127.86, 799.08 0.32 M263.08 616.92 C448.65 402.87, 634.07 189.83, 799.08 0.32 M273.71 616.89 C418.01 450.64, 564.5 282.99, 809.71 0.29 M273.71 616.89 C466.89 392.54, 662.83 167.21, 809.71 0.29 M284.34 616.85 C417 465.05, 550.15 313.23, 820.34 0.25 M284.34 616.85 C485.34 383.71, 686.36 152.08, 820.34 0.25 M294.97 616.82 C470.8 413.39, 647.58 208.34, 830.97 0.22 M294.97 616.82 C483.75 403.15, 671.02 188.01, 830.97 0.22 M305.6 616.78 C443.73 455.44, 585.2 293.29, 841.6 0.19 M305.6 616.78 C513.63 380.74, 720.07 143.33, 841.6 0.19 M316.23 616.75 C493.82 411.34, 673.35 205.91, 852.23 0.15 M316.23 616.75 C429.99 490.02, 541.33 360.95, 852.23 0.15 M326.86 616.71 C510.89 404.27, 697.83 188.78, 862.86 0.12 M326.86 616.71 C536.26 377.2, 743.1 138.88, 862.86 0.12 M337.49 616.68 C463.81 469.77, 593.64 321.96, 873.49 0.08 M337.49 616.68 C464.1 472.36, 591.36 326.1, 873.49 0.08 M348.12 616.65 C474.79 470.89, 600.32 324.97, 884.12 0.05 M348.12 616.65 C472.19 472.12, 598.01 328.05, 884.12 0.05 M358.75 616.61 C513.86 443.6, 665.39 268.79, 894.75 0.01 M358.75 616.61 C530.64 416.83, 704.34 217.02, 894.75 0.01 M369.38 616.58 C580.25 371.49, 791.47 126.9, 905.38 -0.02 M369.38 616.58 C545.28 417.67, 719.47 217.64, 905.38 -0.02 M380.01 616.54 C536.82 437.4, 691.72 258.84, 916.01 -0.06 M380.01 616.54 C510.77 465.54, 642.96 313.43, 916.01 -0.06 M390.64 616.51 C564.02 415.23, 739.16 214.94, 926.64 -0.09 M390.64 616.51 C546.85 435.36, 704.81 253.65, 926.64 -0.09 M401.27 616.47 C594.82 397.69, 787.4 176.47, 937.27 -0.12 M401.27 616.47 C605.31 383.67, 808.35 149.93, 937.27 -0.12 M411.9 616.44 C554.42 454.14, 694.47 292.12, 947.9 -0.16 M411.9 616.44 C588.81 416.21, 763.98 215.06, 947.9 -0.16 M422.53 616.4 C626.67 379.7, 831.07 145.08, 958.53 -0.19 M422.53 616.4 C627.56 380.21, 833.76 142.42, 958.53 -0.19 M433.16 616.37 C574.51 452.84, 718.78 287.89, 969.16 -0.23 M433.16 616.37 C563.21 467.8, 692.66 319.05, 969.16 -0.23 M443.79 616.33 C620.33 418.34, 793.72 217.88, 979.79 -0.26 M443.79 616.33 C617.28 419.11, 789.67 220.9, 979.79 -0.26 M453.77 617.06 C638.93 403.74, 821.42 192.57, 989.77 0.46 M453.77 617.06 C564.2 489.67, 673.45 363.14, 989.77 0.46 M464.4 617.02 C649.27 405.45, 833.42 193.52, 1000.4 0.42 M464.4 617.02 C645.77 411.33, 824.99 204.95, 1000.4 0.42 M475.03 616.99 C645.8 418.67, 817.25 221.75, 1011.03 0.39 M475.03 616.99 C593.32 480.08, 713.19 341.93, 1011.03 0.39 M485.66 616.95 C633.39 450, 778.68 281.31, 1021.66 0.35 M485.66 616.95 C684.64 391.26, 882.06 165.13, 1021.66 0.35 M496.29 616.92 C691.41 396.42, 885.22 175.58, 1032.29 0.32 M496.29 616.92 C631.06 461.89, 764.01 308.03, 1032.29 0.32 M506.92 616.88 C685.73 413.19, 863.09 209.6, 1042.92 0.28 M506.92 616.88 C640.01 462.48, 775.01 307.02, 1042.92 0.28 M517.55 616.85 C658.46 452.68, 799.12 290.73, 1053.55 0.25 M517.55 616.85 C660.52 450.42, 804.73 283.89, 1053.55 0.25 M528.18 616.81 C644.05 482.12, 760.21 349.5, 1064.18 0.22 M528.18 616.81 C642.7 487.3, 757.45 355.78, 1064.18 0.22 M538.81 616.78 C732.2 394.55, 924.46 172.72, 1074.81 0.18 M538.81 616.78 C659.71 479.82, 777.86 343.46, 1074.81 0.18 M549.44 616.74 C664.8 481.26, 779.84 348.14, 1085.44 0.15 M549.44 616.74 C745.22 390.37, 942.7 162.32, 1085.44 0.15 M560.07 616.71 C670.71 487.52, 782.37 358.16, 1096.07 0.11 M560.07 616.71 C710.89 446.35, 860.55 274.48, 1096.07 0.11 M570.7 616.68 C729.33 435.18, 888.67 252.71, 1106.7 0.08 M570.7 616.68 C693.85 475.94, 815.87 335.36, 1106.7 0.08 M581.33 616.64 C749.13 423.63, 916.23 231.36, 1117.33 0.04 M581.33 616.64 C775.7 397.03, 968.62 174.55, 1117.33 0.04 M591.96 616.61 C703.79 490, 814.18 362.31, 1127.96 0.01 M591.96 616.61 C802.32 374.15, 1012.32 132.27, 1127.96 0.01 M602.59 616.57 C810.52 376.34, 1021.73 133.98, 1138.59 -0.03 M602.59 616.57 C724.62 476.63, 845.84 337.42, 1138.59 -0.03 M613.22 616.54 C815.2 381.77, 1019.13 149.31, 1149.22 -0.06 M613.22 616.54 C749.84 461.22, 886.11 303.83, 1149.22 -0.06 M623.85 616.5 C790.98 422.36, 959.18 228.57, 1159.85 -0.09 M623.85 616.5 C827.11 383.63, 1030.26 150.63, 1159.85 -0.09 M634.48 616.47 C758.11 476.91, 879.35 336.87, 1170.48 -0.13 M634.48 616.47 C796.28 429.88, 958.76 242.48, 1170.48 -0.13 M645.11 616.43 C840.82 388.18, 1038.45 160.51, 1180.45 0.59 M645.11 616.43 C839.71 394.96, 1033.15 172.11, 1180.45 0.59 M655.74 616.4 C788.44 464.64, 921.64 310.22, 1188.46 3.58 M655.74 616.4 C770.8 483.3, 884.83 351.8, 1188.46 3.58 M666.37 616.37 C870.53 380.67, 1074.81 145.02, 1195.81 7.31 M666.37 616.37 C807.6 454.51, 947.23 294.27, 1195.81 7.31 M677 616.33 C850.02 415.46, 1024.87 215.14, 1201.19 13.32 M677 616.33 C867.36 399.85, 1056.21 182.46, 1201.19 13.32 M686.97 617.05 C805.71 481.49, 922.63 346.39, 1203.95 22.34 M686.97 617.05 C797.58 491.41, 907.53 364.91, 1203.95 22.34 M697.6 617.02 C812.56 483.47, 930.94 347.88, 1206.05 32.12 M697.6 617.02 C849.86 443.29, 1002.82 266.8, 1206.05 32.12 M708.23 616.98 C846.04 459.41, 983.7 299.35, 1205.52 44.91 M708.23 616.98 C847.09 458.03, 986.06 298.01, 1205.52 44.91 M718.86 616.95 C861.79 449.33, 1007.6 282.21, 1205.66 56.95 M718.86 616.95 C859.4 452.73, 1001.93 288.88, 1205.66 56.95 M729.49 616.91 C906.54 415.75, 1081.5 212.95, 1205.79 68.99 M729.49 616.91 C909.89 410.61, 1090.26 203.72, 1205.79 68.99 M740.12 616.88 C907.39 423.73, 1073.32 232.17, 1205.92 81.03 M740.12 616.88 C920.15 410.8, 1097.95 206.07, 1205.92 81.03 M750.75 616.84 C867.76 481.69, 985.28 348.65, 1206.06 93.08 M750.75 616.84 C917.11 425.53, 1083.45 234.54, 1206.06 93.08 M761.38 616.81 C859.81 501.84, 960.09 387.64, 1205.53 105.87 M761.38 616.81 C899.76 458.81, 1037.49 300.5, 1205.53 105.87 M772.01 616.77 C916.49 450.03, 1060.76 283.81, 1205.67 117.91 M772.01 616.77 C916.28 448.72, 1061.93 281.55, 1205.67 117.91 M782.64 616.74 C950.67 422.89, 1119.2 230.52, 1205.8 129.95 M782.64 616.74 C867.55 516.67, 954.43 417.29, 1205.8 129.95 M793.27 616.71 C924.01 465.33, 1057.02 312.56, 1205.93 141.99 M793.27 616.71 C931.44 459.47, 1068.52 302.36, 1205.93 141.99 M803.9 616.67 C943.45 458.15, 1081.16 298.42, 1206.07 154.03 M803.9 616.67 C921.44 481.63, 1038.68 346.07, 1206.07 154.03 M814.53 616.64 C961.39 447.53, 1108.99 278.29, 1205.54 166.83 M814.53 616.64 C907.33 511.4, 998.86 405.82, 1205.54 166.83 M825.16 616.6 C913.02 512.97, 1003.73 409.43, 1205.68 178.87 M825.16 616.6 C971.27 447.58, 1118.45 277.73, 1205.68 178.87 M835.79 616.57 C981.75 451.7, 1125.94 285.57, 1205.81 190.91 M835.79 616.57 C934.82 502.83, 1034.39 388.47, 1205.81 190.91 M846.42 616.53 C919.96 529.48, 995.57 443.34, 1205.94 202.95 M846.42 616.53 C988.5 451.75, 1131.22 287.43, 1205.94 202.95 M857.05 616.5 C956.63 501.84, 1056.08 387.52, 1206.08 214.99 M857.05 616.5 C960.62 494.33, 1065.37 374.49, 1206.08 214.99 M867.68 616.46 C965.86 503.28, 1063.8 390.23, 1205.55 227.79 M867.68 616.46 C943.69 528.47, 1018.45 441.86, 1205.55 227.79 M878.31 616.43 C980.49 498, 1083.47 379.83, 1205.69 239.83 M878.31 616.43 C989.77 490.27, 1100.48 362.39, 1205.69 239.83 M888.94 616.4 C982.83 507.98, 1074.46 401.98, 1205.82 251.87 M888.94 616.4 C968.99 522.43, 1050.74 428.94, 1205.82 251.87 M899.57 616.36 C1010.56 488.29, 1121.68 359.46, 1205.95 263.91 M899.57 616.36 C970.45 534.18, 1042.1 452.16, 1205.95 263.91 M910.2 616.33 C1000.98 512.61, 1089.79 409.49, 1206.09 275.95 M910.2 616.33 C993.73 519.53, 1077.15 423.71, 1206.09 275.95 M920.18 617.05 C993.35 533.24, 1067.14 447.1, 1205.56 288.75 M920.18 617.05 C1027.69 491.98, 1135.81 367.31, 1205.56 288.75 M930.81 617.01 C984.4 551.72, 1039.51 489.72, 1205.7 300.79 M930.81 617.01 C1035.59 499.21, 1139.49 379.57, 1205.7 300.79 M941.44 616.98 C1007.09 541.92, 1072.97 466.48, 1205.83 312.83 M941.44 616.98 C998.05 553.59, 1053.38 489.85, 1205.83 312.83 M952.07 616.94 C1038.23 520.06, 1125.94 419.98, 1205.96 324.87 M952.07 616.94 C1006.51 555.21, 1058.9 494.02, 1205.96 324.87 M962.7 616.91 C1041.63 527.25, 1122.1 435.26, 1206.1 336.91 M962.7 616.91 C1037.27 531.15, 1110.99 446.05, 1206.1 336.91 M973.33 616.87 C1034.09 545.57, 1095 477.32, 1205.57 349.71 M973.33 616.87 C1052.02 524.23, 1130.58 434.05, 1205.57 349.71 M983.96 616.84 C1050.16 537.24, 1118.19 460.81, 1205.71 361.75 M983.96 616.84 C1045.98 546.23, 1109.08 475.04, 1205.71 361.75 M994.59 616.81 C1078.31 524.58, 1158.61 429.95, 1205.84 373.79 M994.59 616.81 C1062.8 536.86, 1131.48 458.29, 1205.84 373.79 M1005.22 616.77 C1071.38 537.85, 1138.29 460.6, 1205.97 385.83 M1005.22 616.77 C1066.29 548.72, 1126.85 479.17, 1205.97 385.83 M1015.85 616.74 C1075.68 545.86, 1137.03 476.18, 1206.11 397.87 M1015.85 616.74 C1053.72 573.04, 1091.29 529.86, 1206.11 397.87 M1026.48 616.7 C1063.98 574.55, 1098.09 532.81, 1205.58 410.67 M1026.48 616.7 C1093.09 540.68, 1159.83 463.77, 1205.58 410.67 M1037.11 616.67 C1099.67 545.76, 1160.04 476.69, 1205.72 422.71 M1037.11 616.67 C1074.12 573.8, 1111.33 531.93, 1205.72 422.71 M1047.74 616.63 C1085.08 576.43, 1118.98 534.21, 1205.85 434.75 M1047.74 616.63 C1085.71 573.57, 1123.31 532.15, 1205.85 434.75 M1058.37 616.6 C1110.74 553.2, 1165.49 493.89, 1205.98 446.79 M1058.37 616.6 C1102.55 567.13, 1147.73 515.58, 1205.98 446.79 M1069 616.56 C1120.53 560.7, 1168.2 504.58, 1206.12 458.83 M1069 616.56 C1106.95 573.58, 1145.73 529.49, 1206.12 458.83 M1079.63 616.53 C1119.29 572.44, 1155.77 527.71, 1205.59 471.63 M1079.63 616.53 C1126.34 564.02, 1171.87 510.88, 1205.59 471.63 M1090.26 616.49 C1121.32 577.43, 1155.49 539.76, 1205.73 483.67 M1090.26 616.49 C1116.86 585.54, 1145.22 553.44, 1205.73 483.67 M1100.89 616.46 C1131.63 580.45, 1161.36 547.64, 1205.86 495.71 M1100.89 616.46 C1124.34 589.08, 1149.7 561.51, 1205.86 495.71 M1111.52 616.43 C1142.9 583.18, 1171.69 547.44, 1205.99 507.75 M1111.52 616.43 C1138.98 585.97, 1164.12 553.95, 1205.99 507.75 M1122.15 616.39 C1152.22 581.22, 1182.28 544.3, 1206.13 519.79 M1122.15 616.39 C1147.24 587.49, 1172.05 558.97, 1206.13 519.79 M1132.78 616.36 C1152.19 593.61, 1173.73 569.1, 1205.6 532.58 M1132.78 616.36 C1157.83 587.62, 1181.07 560.9, 1205.6 532.58 M1143.41 616.32 C1166.45 592.22, 1185.07 569.92, 1205.74 544.62 M1143.41 616.32 C1160.18 596.53, 1178.72 576.06, 1205.74 544.62 M1153.38 617.04 C1169.37 598.24, 1186.98 581.19, 1205.87 556.67 M1153.38 617.04 C1171.75 595.63, 1188.4 577.07, 1205.87 556.67 M1164.01 617.01 C1173.75 604.98, 1184.62 592.1, 1206 568.71 M1164.01 617.01 C1174.34 604.81, 1185.63 592.51, 1206 568.71 M1175.3 616.22 C1187.58 601.01, 1200.15 589.74, 1205.48 581.5 M1175.3 616.22 C1188.32 602.32, 1199.42 587.7, 1205.48 581.5 M1187.9 613.92 C1191.57 608.02, 1197.04 605.7, 1204.96 594.3 M1187.9 613.92 C1190.9 609.54, 1194.32 604.75, 1204.96 594.3" stroke="#ffec99" stroke-width="1" fill="none"></path><path d="M32 0 C377.36 2.43, 724.26 2.37, 1173.35 0 M1173.35 0 C1194.65 -0.81, 1203.9 9.8, 1205.35 32 M1205.35 32 C1204.61 244.3, 1204.41 457.2, 1205.35 584.07 M1205.35 584.07 C1205.41 605.73, 1195.53 615.69, 1173.35 616.07 M1173.35 616.07 C859.5 618.41, 546.02 618.22, 32 616.07 M32 616.07 C10.52 614.1, 1.64 605.76, 0 584.07 M0 584.07 C-2.18 380.47, -2.85 177.46, 0 32 M0 32 C-1.96 11.75, 12.27 -0.35, 32 0" stroke="#1e1e1e" stroke-width="2.5" fill="none" stroke-dasharray="1.5 8"></path></g><g stroke-linecap="round" transform="translate(100.83764768677884 211.47324422837096) rotate(0 100.73662211418605 121.11686358237353)"><path d="M32 0 C86.91 2.89, 138.99 -2.29, 169.47 0 C193.76 -2.45, 199.93 11.16, 201.47 32 C205.86 70.6, 203.44 110.6, 201.47 210.23 C198.26 233.34, 192.5 242.92, 169.47 242.23 C124.28 247.77, 75.1 241.21, 32 242.23 C13.94 244.87, 1.53 232.53, 0 210.23 C-3.06 161.24, -4.1 105.49, 0 32 C1.09 12.53, 12.93 -1.3, 32 0" stroke="none" stroke-width="0" fill="#ffec99"></path><path d="M32 0 C66.52 0.65, 104.4 -0.64, 169.47 0 M32 0 C68.63 -0.41, 105.38 -1.3, 169.47 0 M169.47 0 C192.23 0.35, 200.12 11.63, 201.47 32 M169.47 0 C190.24 0.67, 202.14 8.68, 201.47 32 M201.47 32 C202.77 75.2, 201.76 122.43, 201.47 210.23 M201.47 32 C199.27 89.45, 199.33 149.52, 201.47 210.23 M201.47 210.23 C200.77 232, 189.64 242.73, 169.47 242.23 M201.47 210.23 C200.34 231.16, 189.49 243.94, 169.47 242.23 M169.47 242.23 C129.89 242.97, 92.14 243.41, 32 242.23 M169.47 242.23 C133.93 243.01, 97.77 242.49, 32 242.23 M32 242.23 C12.27 241.69, -0.94 231.25, 0 210.23 M32 242.23 C11.88 242.06, 0.29 231.44, 0 210.23 M0 210.23 C-1.31 165.02, -0.74 119.58, 0 32 M0 210.23 C-1.77 147.42, -0.69 83.73, 0 32 M0 32 C1.42 10.68, 12.28 1.12, 32 0 M0 32 C-2.06 10.34, 9.16 2.16, 32 0" stroke="#1e1e1e" stroke-width="2" fill="none"></path></g><g transform="translate(130.2023139293833 297.59010781074426) rotate(0 71.37195587158203 35)"><text x="71.37195587158203" y="0" font-family="Virgil, Segoe UI Emoji" font-size="28px" fill="#1e1e1e" text-anchor="middle" style="white-space: pre;" direction="ltr" dominant-baseline="text-before-edge">Chain </text><text x="71.37195587158203" y="35" font-family="Virgil, Segoe UI Emoji" font-size="28px" fill="#1e1e1e" text-anchor="middle" style="white-space: pre;" direction="ltr" dominant-baseline="text-before-edge">Application</text></g><g stroke-linecap="round" transform="translate(499.8091134224778 214.48573286785017) rotate(0 112.96476699509867 126.35749710276468)"><path d="M32 0 C84.56 0.74, 138.9 0.47, 193.93 0 C215.06 3.22, 229.15 10.87, 225.93 32 C230.91 103.6, 229.08 173.47, 225.93 220.71 C225.85 241.18, 213.31 255.79, 193.93 252.71 C149.76 256.89, 101.05 252.42, 32 252.71 C11.14 249.73, 2.86 241.32, 0 220.71 C-4 158.73, -3.37 103.39, 0 32 C3.38 12.73, 11.41 -0.2, 32 0" stroke="none" stroke-width="0" fill="#ffec99"></path><path d="M32 0 C78.4 0.74, 122.37 1.86, 193.93 0 M32 0 C90.86 0.18, 148.97 -0.13, 193.93 0 M193.93 0 C216.86 1.57, 226.15 12.39, 225.93 32 M193.93 0 C217.28 0.78, 225.8 12.87, 225.93 32 M225.93 32 C226.13 107.06, 225.71 181.01, 225.93 220.71 M225.93 32 C226.24 103.19, 227.45 174.2, 225.93 220.71 M225.93 220.71 C227.57 240.62, 215.06 254.02, 193.93 252.71 M225.93 220.71 C226.97 242.51, 215.35 253.71, 193.93 252.71 M193.93 252.71 C148.44 251.29, 104.58 253.62, 32 252.71 M193.93 252.71 C137.46 253.39, 82.32 253.24, 32 252.71 M32 252.71 C11.9 251.56, 0.87 242.09, 0 220.71 M32 252.71 C9.96 251.47, 0.62 244.14, 0 220.71 M0 220.71 C0.91 175.75, 1.2 128.5, 0 32 M0 220.71 C0.88 154.4, 1.27 87.42, 0 32 M0 32 C-1.77 11.37, 12.18 1.24, 32 0 M0 32 C0.64 11.21, 11.77 -0.13, 32 0" stroke="#1e1e1e" stroke-width="2" fill="none"></path></g><g stroke-linecap="round" transform="translate(502.7205764893606 273.3983123915016) rotate(0 111.80018176834483 97.24286643392497)"><path d="M32 0 C96.22 0.09, 155.02 -0.31, 191.6 0 C212.41 -0.98, 220.81 11.83, 223.6 32 C222.32 67.51, 220.04 103.8, 223.6 162.49 C226.15 180.91, 210.45 191.92, 191.6 194.49 C127.8 196.76, 68.65 191.62, 32 194.49 C13.07 195.64, -2.67 186.69, 0 162.49 C-1.57 110.68, -5.43 59, 0 32 C3.01 10.54, 13.39 0.32, 32 0" stroke="none" stroke-width="0" fill="#ffec99"></path><path d="M32 0 C72.18 -1.4, 108.08 -2.15, 191.6 0 M32 0 C92.86 0.97, 153.89 -0.05, 191.6 0 M191.6 0 C212.94 1.04, 224.09 11.04, 223.6 32 M191.6 0 C210.81 -1.74, 223.65 9.43, 223.6 32 M223.6 32 C223.82 58.63, 224.76 87.35, 223.6 162.49 M223.6 32 C222.94 64.51, 224 99.43, 223.6 162.49 M223.6 162.49 C222.23 185.61, 212.18 196.28, 191.6 194.49 M223.6 162.49 C223.07 181.96, 210.67 193.57, 191.6 194.49 M191.6 194.49 C147.34 195.41, 98.28 193.52, 32 194.49 M191.6 194.49 C159.12 196.1, 125.28 195.1, 32 194.49 M32 194.49 C11.63 192.69, 0.49 184.72, 0 162.49 M32 194.49 C12.12 193.1, -1.05 182.4, 0 162.49 M0 162.49 C-0.67 123.53, 2.38 86.55, 0 32 M0 162.49 C0.23 117.02, -1.07 72.49, 0 32 M0 32 C1.37 11.97, 8.68 -1.41, 32 0 M0 32 C-1.73 10.1, 10.29 -0.71, 32 0" stroke="#1e1e1e" stroke-width="2" fill="none"></path></g><g stroke-linecap="round" transform="translate(913.4003376899918 343.81419192428825) rotate(0 36.10214202936231 29.114630668839936)"><path d="M14.56 0 C27.52 -1.7, 41.84 2.36, 57.65 0 C68.75 -0.91, 71.06 7.93, 72.2 14.56 C69.7 28.05, 69.62 35.77, 72.2 43.67 C72.19 56.84, 66.47 61.02, 57.65 58.23 C47.67 62.31, 35.31 59.83, 14.56 58.23 C7.47 54.87, 3.11 52.73, 0 43.67 C-0.01 36.64, -0.85 21.84, 0 14.56 C-1.59 4.38, 3.28 2.08, 14.56 0" stroke="none" stroke-width="0" fill="#ffec99"></path><path d="M14.56 0 C24.07 0.45, 35.11 1.94, 57.65 0 M57.65 0 C65.54 0.23, 73.91 6.55, 72.2 14.56 M72.2 14.56 C72.28 21.93, 72.45 32.01, 72.2 43.67 M72.2 43.67 C72.28 54.8, 67.57 58.76, 57.65 58.23 M57.65 58.23 C48.1 59.62, 39.71 58.02, 14.56 58.23 M14.56 58.23 C4.75 59.75, -0.83 52.91, 0 43.67 M0 43.67 C-2.09 33.48, -2.18 21.4, 0 14.56 M0 14.56 C-0.84 4.43, 5.28 -0.52, 14.56 0" stroke="#1e1e1e" stroke-width="2.5" fill="none" stroke-dasharray="1.5 8"></path></g><g transform="translate(922.0705110303888 352.9288225931284) rotate(0 27.431968688964844 20)"><text x="27.431968688964844" y="0" font-family="Virgil, Segoe UI Emoji" font-size="16px" fill="#1e1e1e" text-anchor="middle" style="white-space: pre;" direction="ltr" dominant-baseline="text-before-edge">Crypto.</text><text x="27.431968688964844" y="20" font-family="Virgil, Segoe UI Emoji" font-size="16px" fill="#1e1e1e" text-anchor="middle" style="white-space: pre;" direction="ltr" dominant-baseline="text-before-edge">com</text></g><g stroke-linecap="round" transform="translate(911.0711672364841 84.45628976182547) rotate(0 38.431312482869544 29.114630668839936)"><path d="M14.56 0 C31.63 3.11, 50.22 -0.62, 62.31 0 C70.87 3.08, 79.75 5.19, 76.86 14.56 C73.85 23.23, 76.47 37.21, 76.86 43.67 C75.98 56.17, 69.45 61.68, 62.31 58.23 C40.77 59.88, 27.05 55.66, 14.56 58.23 C7.96 57.58, 1.02 50.89, 0 43.67 C-1.16 32.27, -1.53 25.81, 0 14.56 C-1.57 6.93, 4.25 1.81, 14.56 0" stroke="none" stroke-width="0" fill="#ffec99"></path><path d="M14.56 0 C25.41 1.55, 33.28 0.21, 62.31 0 M62.31 0 C73.71 1.7, 76.78 2.95, 76.86 14.56 M76.86 14.56 C77.44 23.1, 76.99 32.61, 76.86 43.67 M76.86 43.67 C77.09 53.91, 70.24 59.49, 62.31 58.23 M62.31 58.23 C44.15 57.89, 25.32 59.99, 14.56 58.23 M14.56 58.23 C4.02 57.76, 1.81 54.99, 0 43.67 M0 43.67 C-1.67 36.52, -0.57 28.03, 0 14.56 M0 14.56 C0.43 4.33, 5.2 -1.79, 14.56 0" stroke="#1e1e1e" stroke-width="2.5" fill="none" stroke-dasharray="1.5 8"></path></g><g transform="translate(916.3105012647638 103.57092043066564) rotate(0 33.191978454589844 10)"><text x="33.191978454589844" y="0" font-family="Virgil, Segoe UI Emoji" font-size="16px" fill="#1e1e1e" text-anchor="middle" style="white-space: pre;" direction="ltr" dominant-baseline="text-before-edge">Coinbase</text></g><g stroke-linecap="round" transform="translate(913.9826303033678 170.90892381597973) rotate(0 35.51984941598539 29.114630668839936)"><path d="M14.56 0 C26.15 -1.44, 42.65 2.59, 56.48 0 C66.53 1.06, 68.49 7.27, 71.04 14.56 C74.37 20.28, 73.7 25.21, 71.04 43.67 C74.49 56.86, 66.07 61.56, 56.48 58.23 C43.57 61.88, 36.74 59.8, 14.56 58.23 C2.36 58.18, -0.38 55.9, 0 43.67 C-0.08 34.35, 2.47 27.57, 0 14.56 C1.81 7.98, 5.69 2.38, 14.56 0" stroke="none" stroke-width="0" fill="#ffec99"></path><path d="M14.56 0 C28.59 2.08, 43.86 0.3, 56.48 0 M56.48 0 C64.28 -0.29, 71.4 3.62, 71.04 14.56 M71.04 14.56 C72.5 24.28, 71.6 31.79, 71.04 43.67 M71.04 43.67 C72.3 55.1, 65.75 59.25, 56.48 58.23 M56.48 58.23 C44.82 57.37, 29.66 60.02, 14.56 58.23 M14.56 58.23 C6.47 57.46, -1.86 54.55, 0 43.67 M0 43.67 C-0.49 38.2, -0.59 32.21, 0 14.56 M0 14.56 C-1.79 6.03, 4.46 -0.69, 14.56 0" stroke="#1e1e1e" stroke-width="2.5" fill="none" stroke-dasharray="1.5 8"></path></g><g transform="translate(930.4864885084153 190.0235544848199) rotate(0 19.0159912109375 10)"><text x="19.0159912109375" y="0" font-family="Virgil, Segoe UI Emoji" font-size="16px" fill="#1e1e1e" text-anchor="middle" style="white-space: pre;" direction="ltr" dominant-baseline="text-before-edge">Mexc</text></g><g stroke-linecap="round" transform="translate(913.9826303033678 257.361557870134) rotate(0 35.51984941598539 29.114630668839936)"><path d="M14.56 0 C31.84 3.12, 43.31 1.3, 56.48 0 C63.64 2.42, 68.4 3.93, 71.04 14.56 C74.34 20.72, 75 35.48, 71.04 43.67 C70.93 56.7, 63.59 59.08, 56.48 58.23 C40.21 59.9, 22.74 58.83, 14.56 58.23 C4.48 60.76, -1.22 50.67, 0 43.67 C2.15 35.62, 1.88 31.89, 0 14.56 C0.83 7.23, 1.79 3.08, 14.56 0" stroke="none" stroke-width="0" fill="#ffec99"></path><path d="M14.56 0 C25.03 -0.44, 30.21 -0.65, 56.48 0 M56.48 0 C66.54 -1.24, 71.57 5.08, 71.04 14.56 M71.04 14.56 C71.78 21.63, 72.51 33.98, 71.04 43.67 M71.04 43.67 C70.6 54.4, 66.47 57.65, 56.48 58.23 M56.48 58.23 C43.64 59.86, 33.35 57.28, 14.56 58.23 M14.56 58.23 C2.99 59.41, -1.94 53.83, 0 43.67 M0 43.67 C-0.46 36.51, -1.73 29.83, 0 14.56 M0 14.56 C-0.4 4.16, 4.82 1.56, 14.56 0" stroke="#1e1e1e" stroke-width="2.5" fill="none" stroke-dasharray="1.5 8"></path></g><g transform="translate(926.1184846632004 276.47618853897416) rotate(0 23.383995056152344 10)"><text x="23.383995056152344" y="0" font-family="Virgil, Segoe UI Emoji" font-size="16px" fill="#1e1e1e" text-anchor="middle" style="white-space: pre;" direction="ltr" dominant-baseline="text-before-edge">Kucoin</text></g><g stroke-linecap="round" transform="translate(913.9826303033678 430.2668259784425) rotate(0 35.51984941598539 29.114630668839936)"><path d="M14.56 0 C29.95 -2.1, 39.58 0.52, 56.48 0 C69.65 -0.88, 73.83 2.3, 71.04 14.56 C74.87 23.48, 72.4 40.23, 71.04 43.67 C67.68 56.48, 65.54 59.25, 56.48 58.23 C49.33 56.93, 34.42 56.56, 14.56 58.23 C4.38 56.66, 2.08 52.78, 0 43.67 C1.92 30.41, 2.62 22.53, 0 14.56 C-0.34 1.92, 2.06 -2.96, 14.56 0" stroke="none" stroke-width="0" fill="#ffec99"></path><path d="M14.56 0 C21.91 0.45, 31.96 0, 56.48 0 M56.48 0 C67.61 0.22, 71.57 3.08, 71.04 14.56 M71.04 14.56 C72.31 25.41, 70.71 35.6, 71.04 43.67 M71.04 43.67 C72.56 52.54, 65.72 60.04, 56.48 58.23 M56.48 58.23 C41.7 55.9, 25.02 57, 14.56 58.23 M14.56 58.23 C4.43 58.66, -0.52 53.72, 0 43.67 M0 43.67 C-0.86 37.51, 1.39 32.18, 0 14.56 M0 14.56 C-0.51 4.22, 6.56 1.6, 14.56 0" stroke="#1e1e1e" stroke-width="2.5" fill="none" stroke-dasharray="1.5 8"></path></g><g transform="translate(920.7344896070481 449.3814566472827) rotate(0 28.767990112304688 10)"><text x="28.767990112304688" y="0" font-family="Virgil, Segoe UI Emoji" font-size="16px" fill="#1e1e1e" text-anchor="middle" style="white-space: pre;" direction="ltr" dominant-baseline="text-before-edge">Binance</text></g><g stroke-linecap="round" transform="translate(913.9826303033678 516.7194600325968) rotate(0 35.51984941598539 29.114630668839936)"><path d="M14.56 0 C23.24 0.53, 37.24 -0.33, 56.48 0 C68.98 -2.56, 74.49 8.33, 71.04 14.56 C72.38 25.82, 68.16 34.95, 71.04 43.67 C70.39 54.4, 63.7 58.18, 56.48 58.23 C41.64 56.39, 31.73 56.4, 14.56 58.23 C6.93 57.63, 1.81 56.5, 0 43.67 C2.73 33.52, -0.69 21.92, 0 14.56 C-2.79 1.89, 6.12 -0.7, 14.56 0" stroke="none" stroke-width="0" fill="#ffec99"></path><path d="M14.56 0 C28.11 -0.03, 42.64 0.11, 56.48 0 M56.48 0 C66.72 -1.77, 72.3 6.58, 71.04 14.56 M71.04 14.56 C70.61 22.55, 72.71 29.91, 71.04 43.67 M71.04 43.67 C70.57 55.18, 67.8 57.46, 56.48 58.23 M56.48 58.23 C48.25 56.98, 38.69 58.25, 14.56 58.23 M14.56 58.23 C4.33 58.58, -1.79 54.55, 0 43.67 M0 43.67 C1.66 36.29, -0.41 26.72, 0 14.56 M0 14.56 C1.71 6.45, 5.04 0.59, 14.56 0" stroke="#1e1e1e" stroke-width="2.5" fill="none" stroke-dasharray="1.5 8"></path></g><g transform="translate(921.3744889966965 535.8340907014369) rotate(0 28.12799072265625 10)"><text x="28.12799072265625" y="0" font-family="Virgil, Segoe UI Emoji" font-size="16px" fill="#1e1e1e" text-anchor="middle" style="white-space: pre;" direction="ltr" dominant-baseline="text-before-edge">&amp; More</text></g><g mask="url(#mask-Vj7omSNwfQovYSZTG4zn6)" stroke-linecap="round"><g transform="translate(495.7476025638098 348.9883213443229) rotate(0 -94.91369598041774 -1.3159641585227746)"><path d="M-0.05 0.85 C-31.8 0.55, -157.98 -1.27, -189.77 -1.8 M-1.54 0.24 C-33.5 -0.38, -159.54 -3.3, -190.68 -3.48" stroke="#1e1e1e" stroke-width="2" fill="none"></path></g><g transform="translate(495.7476025638098 348.9883213443229) rotate(0 -94.91369598041774 -1.3159641585227746)"><path d="M-167.06 -11.66 C-174.16 -8.63, -182.69 -7.38, -190.68 -3.48 M-167.06 -11.66 C-174.3 -10.13, -183.52 -6.54, -190.68 -3.48" stroke="#1e1e1e" stroke-width="2" fill="none"></path></g><g transform="translate(495.7476025638098 348.9883213443229) rotate(0 -94.91369598041774 -1.3159641585227746)"><path d="M-167.33 5.44 C-174.33 2.31, -182.76 -2.6, -190.68 -3.48 M-167.33 5.44 C-174.34 1.38, -183.47 -0.62, -190.68 -3.48" stroke="#1e1e1e" stroke-width="2" fill="none"></path></g></g><mask id="mask-Vj7omSNwfQovYSZTG4zn6"><rect x="0" y="0" fill="#fff" width="785.5749945246453" height="451.62024966136846"></rect><rect x="360.2059234901308" y="330.17235718580014" fill="#000" width="81.25596618652344" height="35" opacity="1"></rect></mask><g transform="translate(360.2059234901308 330.1723571858006) rotate(0 40.17319508591618 17.49809744706363)"><text x="40.62798309326172" y="0" font-family="Virgil, Segoe UI Emoji" font-size="28px" fill="#1e1e1e" text-anchor="middle" style="white-space: pre;" direction="ltr" dominant-baseline="text-before-edge">Prices</text></g><g transform="translate(512.2959217383768 232.90783011915323) rotate(0 100.47795867919922 17.5)"><text x="0" y="0" font-family="Virgil, Segoe UI Emoji" font-size="28px" fill="#1e1e1e" text-anchor="start" style="white-space: pre;" direction="ltr" dominant-baseline="text-before-edge">Oracle Sidecar</text></g><g transform="translate(510.083923752537 351.6955232480202) rotate(0 102.68995666503906 17.5)"><text x="0" y="0" font-family="Virgil, Segoe UI Emoji" font-size="28px" fill="#1e1e1e" text-anchor="start" style="white-space: pre;" direction="ltr" dominant-baseline="text-before-edge">Price Providers</text></g><g stroke-linecap="round"><g transform="translate(725.1708922342686 358.89477737704215) rotate(0 92.00223291353359 -121.11686358237353)"><path d="M0 0 C30.67 -40.37, 153.34 -201.86, 184 -242.23 M0 0 C30.67 -40.37, 153.34 -201.86, 184 -242.23" stroke="#1e1e1e" stroke-width="2" fill="none"></path></g></g><mask></mask><g stroke-linecap="round"><g transform="translate(730.993818368036 354.23643647002814) rotate(0 91.41994030015712 -76.28033235236035)"><path d="M0 0 C30.47 -25.43, 152.37 -127.13, 182.84 -152.56 M0 0 C30.47 -25.43, 152.37 -127.13, 182.84 -152.56" stroke="#1e1e1e" stroke-width="2" fill="none"></path></g></g><mask></mask><g stroke-linecap="round"><g transform="translate(728.6646479145293 354.23643647002814) rotate(0 90.8376476867802 -34.937556802608015)"><path d="M0 0 C30.28 -11.65, 151.4 -58.23, 181.68 -69.88 M0 0 C30.28 -11.65, 151.4 -58.23, 181.68 -69.88" stroke="#1e1e1e" stroke-width="2" fill="none"></path></g></g><mask></mask><g stroke-linecap="round"><g transform="translate(727.5000626877754 353.0718512432743) rotate(0 91.41994030015712 8.152096587275082)"><path d="M0 0 C30.47 2.72, 152.37 13.59, 182.84 16.3 M0 0 C30.47 2.72, 152.37 13.59, 182.84 16.3" stroke="#1e1e1e" stroke-width="2" fill="none"></path></g></g><mask></mask><g stroke-linecap="round"><g transform="translate(726.3354774610225 354.23643647002814) rotate(0 93.16681814028698 51.824042590534646)"><path d="M0 0 C31.06 17.27, 155.28 86.37, 186.33 103.65 M0 0 C31.06 17.27, 155.28 86.37, 186.33 103.65" stroke="#1e1e1e" stroke-width="2" fill="none"></path></g></g><mask></mask><g stroke-linecap="round"><g transform="translate(724.0063070075148 355.4010216967815) rotate(0 93.74911075366435 96.07828120717136)"><path d="M0 0 C31.25 32.03, 156.25 160.13, 187.5 192.16 M0 0 C31.25 32.03, 156.25 160.13, 187.5 192.16" stroke="#1e1e1e" stroke-width="2" fill="none"></path></g></g><mask></mask></svg>