<?xml version="1.0" encoding="utf-8"?>
<!-- Generator: Adobe Illustrator 26.3.1, SVG Export Plug-In . SVG Version: 6.00 Build 0)  -->
<svg version="1.1" xmlns="http://www.w3.org/2000/svg" xmlns:xlink="http://www.w3.org/1999/xlink" x="0px" y="0px"
	 viewBox="0 0 551.4 424.9" style="enable-background:new 0 0 551.4 424.9;" xml:space="preserve">
<style type="text/css">
	.st0{fill:#FFFFFF;}
</style>
<g id="Layer_1">
	<g>
		<g>
			<path d="M517.2,223.5c-8.1-9.1-17.7-18.4-28.7-27.6l-3.6-20.5c-8.6-48.5-34.1-92.9-72-125C374.6,17.9,325.9,0,275.7,0
				c-56.3,0-111.2,23-151,63.1c-11.4-1.7-29.6-3.8-39.3-3.8c-55.7,0-74.6,27.5-80.9,43.9c-11.3,29.4-1,63.3,29.8,98.2
				c8.1,9.1,17.7,18.4,28.7,27.6l3.6,20.5c8.6,48.5,34.1,92.9,72,125c38.3,32.5,87,50.4,137.2,50.4c55.8,0,108.3-21.4,148.3-60.4
				c11,1,26.6,1.2,39.4,1.2h2.7c55.7,0,74.6-27.5,80.9-43.9C558.3,292.3,548,258.3,517.2,223.5z"/>
			<path class="st0" d="M275.7,35.6c79.8,0,147.4,53.1,169.4,125.9c8.6,5.3,16.9,10.9,24.8,16.6C453.6,85.7,372.7,15.2,275.7,15.2
				c-91.3,0-168.3,62.4-190.6,146.8c5.4,4.7,11.3,9.3,17.6,13.9C119.5,95.9,190.7,35.6,275.7,35.6z"/>
			<path class="st0" d="M448.8,249c-16.9,80.1-88.1,140.3-173.1,140.3c-79.8,0-147.4-53.1-169.4-125.9c-8.6-5.3-16.9-10.9-24.8-16.6
				c16.3,92.4,97.2,162.8,194.2,162.8c91.3,0,168.3-62.4,190.6-146.8C461,258.2,455.1,253.5,448.8,249z"/>
			<path class="st0" d="M466.1,350.4c34.5,0,58.2-12.1,66.7-34.2c11.6-30-8.3-61.5-27-82.7c-23.9-27-61-54-101.9-74.1
				c-68.9-33.9-135-43.2-168.4-23.8c-3.9,2.3-6.9,6.2-8.2,10.9c-1.4,4.8-1,9.8,1,14.3c2,4.4,5.5,7.7,9.7,9.3
				c4.2,1.5,8.7,1.1,12.7-1.2c20.4-11.8,75-7.1,140,24.9c5,2.5,10,5.1,15,7.8c31.9,16.4,60.5,36,80.5,55.4
				c33.2,32.1,34,54.9,28.8,68.3c-5.9,15.4-26,23.2-59.7,23.2c-6.4,0-13.3-0.3-20.6-0.9C445.8,349.4,456.3,350.4,466.1,350.4
				C466,350.4,466,350.4,466.1,350.4z"/>
			<path class="st0" d="M85.4,74.5c-34.5,0-58.2,12.1-66.7,34.2c-11.6,30,8.3,61.5,27,82.7c23.9,27,61,54,101.9,74.1
				c68.9,33.9,135,43.2,168.4,23.8c3.9-2.3,6.9-6.2,8.2-10.9c1.4-4.8,1-9.8-1-14.3c-2-4.4-5.5-7.7-9.7-9.3
				c-4.2-1.5-8.7-1.1-12.7,1.2c-20.4,11.8-75,7.1-140-24.9c-5-2.5-10-5.1-15-7.8c-31.9-16.4-60.5-36-80.5-55.4
				c-33.2-32.1-34-54.9-28.8-68.3c5.9-15.4,26-23.2,59.7-23.2c6.4,0,13.3,0.3,20.6,0.9C105.7,75.5,95.2,74.5,85.4,74.5
				C85.4,74.5,85.4,74.5,85.4,74.5z"/>
		</g>
	</g>
</g>
</svg>
